<?xml version="1.0" encoding="UTF-8"?>
<svg id="Layer_1" data-name="Layer 1" xmlns="http://www.w3.org/2000/svg" viewBox="0 0 566.93 566.93">
  <defs>
    <style>
      .cls-1 {
        fill: #fff;
      }

      .cls-2 {
        fill: #00ca74;
      }
    </style>
  </defs>
  <g>
    <path class="cls-2" d="M228.54,121.43c15.53-1.24,34.4-2.12,56.74-2.12,20.75,0,38.25.76,52.74,1.87,1.83.14,2.69-2.23,1.18-3.28-15.8-11.02-35.02-17.49-55.75-17.49s-40.24,6.56-56.12,17.74c-1.5,1.06-.63,3.42,1.2,3.28Z"/>
    <path class="cls-2" d="M193.78,214.97c-1.52.03-3.02.18-4.47.45-1,.19-1.65,1.16-1.45,2.16,3.47,17.07,11.41,32.52,22.54,45.08.69.78,1.85.83,2.61.12,5.69-5.25,9.18-12.87,8.87-21.28-.54-14.95-13.15-26.84-28.1-26.54Z"/>
    <path class="cls-2" d="M234.35,178.94h-45.11c-.87,0-1.62.62-1.78,1.47-.79,4.35-1.3,8.8-1.49,13.33-.05,1.11.93,1.99,2.04,1.84,1.9-.25,3.83-.4,5.79-.42,25.13-.28,46.29,19.34,47.81,44.43.85,14.09-4.49,26.96-13.56,36.15-.78.8-.67,2.1.25,2.73,4.78,3.29,9.87,6.16,15.22,8.56.12-.09.24-.18.36-.28,8.01-6.2,12.07-14.72,12.07-25.33v-52.09c0-12.35-1.66-20.5-5.08-24.91-1.98-2.56-5.65-5.49-16.52-5.49Z"/>
    <path class="cls-2" d="M299.04,172.31c6.86-8.86,17.38-13.17,32.17-13.17h38.98c1.32,0,2.21-1.37,1.65-2.57-1.95-4.15-4.18-8.14-6.67-11.94-.28-.43-.74-.72-1.26-.8h0c-15.27-2.16-41.3-4.73-78.62-4.73s-64.57,2.59-80.69,4.77c-.6.08-1.18.16-1.76.24-.52.07-.99.36-1.27.81-2.41,3.71-4.58,7.6-6.47,11.64-.56,1.2.32,2.58,1.64,2.58h37.62c14.79,0,25.31,4.31,32.17,13.17,6.29,8.12,9.22,19.89,9.22,37.03v52.09c0,11.39-3.13,21.56-9.16,30.04-.77,1.09-.14,2.62,1.17,2.83,5.11.83,10.36,1.26,15.71,1.26,4.91,0,9.72-.36,14.44-1.06,1.35-.2,2-1.75,1.21-2.86-6.11-8.52-9.28-18.75-9.28-30.21v-52.09c0-17.14,2.93-28.9,9.22-37.03Z"/>
    <path class="cls-2" d="M378.18,215.93c-2.59-.71-5.34-1.05-8.17-.96-14.38.47-26.11,12.14-26.63,26.52-.33,9.09,3.77,17.26,10.3,22.52.52.42,1.29.36,1.74-.13,11.74-12.81,20.11-28.77,23.68-46.47.13-.66-.27-1.31-.92-1.49Z"/>
    <path class="cls-2" d="M379.46,180.44c-.16-.87-.9-1.5-1.78-1.5h-46.47c-10.87,0-14.54,2.93-16.52,5.49-3.42,4.41-5.08,12.56-5.08,24.91v52.09c0,10.61,4.06,19.14,12.07,25.33.29.22.58.44.87.66,5.27-2.31,10.29-5.06,15.03-8.23.95-.64,1.09-2,.27-2.8-9.06-8.84-14.59-21.27-14.28-34.97.59-25.85,22.11-46.59,47.97-46.26,2.49.03,4.93.26,7.31.66,1.13.19,2.15-.72,2.1-1.86-.19-4.6-.69-9.12-1.49-13.53Z"/>
  </g>
  <g>
    <g>
      <polygon class="cls-1" points="81.82 400.44 81.82 413.39 102.53 413.39 102.53 465.71 116.46 465.71 116.46 413.39 135.57 413.39 136.91 400.44 81.82 400.44"/>
      <path class="cls-1" d="M156.73,400.44l-19.91,65.27h14.38l4.29-14.73h26.07l4.37,14.73h14.11l-20-65.27h-23.3ZM158.87,439.28l8.22-27.05h3.04l8.12,27.05h-19.38Z"/>
      <polygon class="cls-1" points="225.83 428.21 209.14 400.44 194.49 400.44 218.87 440.62 218.87 465.71 232.71 465.71 232.71 440.62 257.08 400.44 242.35 400.44 225.83 428.21"/>
      <polygon class="cls-1" points="304.22 431.42 282.08 400.44 267.79 400.44 267.79 465.71 280.92 465.71 280.92 421.78 300.92 450.17 306.72 450.17 326.63 422.05 326.63 465.71 339.76 465.71 339.76 400.44 326.55 400.44 304.22 431.42"/>
      <path class="cls-1" d="M372.88,400.44l-19.91,65.27h14.38l4.29-14.73h26.07l4.38,14.73h14.11l-20-65.27h-23.3ZM375.02,439.28l8.21-27.05h3.04l8.13,27.05h-19.38Z"/>
      <path class="cls-1" d="M459.4,425c-4.55-.89-16.16-2.32-16.16-7.14,0-5.8,8.48-6.7,13.66-6.7,6.52,0,13.75,3.66,15.27,10.18l12.86-7.59c-2.86-10.8-15.36-15-28.93-15-10.89,0-27.05,3.93-27.05,18.75,0,8.3,4.37,13.48,11.16,16.16,5.89,2.32,10.18,3.21,14.73,3.93,3.66.54,15.98,1.61,15.98,6.96,0,6.61-7.77,9.29-17.14,9.29-6.52,0-13.93-3.93-16.25-10.8l-12.68,7.23c2.68,8.66,12.68,16.25,30.54,16.25,12.23,0,29.73-5.8,29.73-21.43s-13.48-17.68-25.71-20.09Z"/>
    </g>
    <g>
      <path class="cls-2" d="M116.85,357.11h-5.6v9.47c-1.98.79-4.27,1.24-6.89,1.24-7.54,0-14.88-5.7-14.88-14.63,0-7.19,3.07-12.99,11.16-12.99,6.6,0,8.73,3.27,10.36,8.78l6.1-1.93c-2.43-8.58-7.84-11.95-15.47-11.95-11.6,0-17.85,6.35-17.85,18.3s8.78,19.34,19.84,19.34c7.19,0,10.17-.5,15.22-4.96v-1.29l-1.98-.94v-8.43Z"/>
      <path class="cls-2" d="M158.06,346.55c0-7.44-6.45-10.46-14.43-10.46h-17.06v36.15h5.5v-15.27h7.59c5.16,5.21,7.98,9.92,10.07,15.27h6.94c-3.32-6.35-5.7-10.91-11.31-16.02,7.04-.69,12.7-2.48,12.7-9.67ZM142.64,352.3h-10.56v-11.55h11.06c6.55,0,9.92,1.29,9.92,5.8,0,5.5-5.41,5.75-10.41,5.75Z"/>
      <path class="cls-2" d="M174.42,336.09l-11.01,36.15h5.65l2.58-8.78h17.61l2.58,8.78h5.51l-11.06-36.15h-11.85ZM172.88,359.2l5.65-18.79h3.87l5.6,18.79h-15.12Z"/>
      <polygon class="cls-2" points="230.8 362.97 208.93 336.09 204.67 336.09 204.67 372.24 210.07 372.24 210.07 345.61 232.29 372.24 236.21 372.24 236.21 336.09 230.8 336.09 230.8 362.97"/>
      <path class="cls-2" d="M258.08,336.09h-11.56v36.15h14.43c9.77,0,18-4.91,18-15.97,0-12.89-8.28-20.18-20.88-20.18ZM260.26,367.63h-8.18v-26.83h5.11c8.38,0,16.22,4.91,16.22,14.68,0,8.93-5.5,12.15-13.14,12.15Z"/>
      <path class="cls-2" d="M320.85,336.09h-12.45v36.15h5.51v-12.99h10.36c7.04,0,14.58-3.07,14.58-11.5,0-9.52-8.03-11.65-18-11.65ZM322.39,354.68h-8.48v-13.93h9.77c6.55,0,9.87,2.48,9.87,6.99,0,5.95-6.64,6.94-11.16,6.94Z"/>
      <path class="cls-2" d="M351.15,336.09l-11.01,36.15h5.65l2.58-8.78h17.61l2.58,8.78h5.51l-11.06-36.15h-11.85ZM349.61,359.2l5.65-18.79h3.87l5.6,18.79h-15.12Z"/>
      <path class="cls-2" d="M392.95,336.09h-11.56v36.15h14.43c9.77,0,18-4.91,18-15.97,0-12.89-8.28-20.18-20.88-20.18ZM395.14,367.63h-8.18v-26.83h5.11c8.38,0,16.22,4.91,16.22,14.68,0,8.93-5.5,12.15-13.14,12.15Z"/>
      <polygon class="cls-2" points="427.76 354.19 443.24 354.19 443.73 349.53 427.76 349.53 427.76 341.1 448.25 341.1 448.79 336.09 422.21 336.09 422.21 372.24 448.54 372.24 449.09 367.38 427.76 367.38 427.76 354.19"/>
      <polygon class="cls-2" points="462.77 367.38 462.77 336.09 457.22 336.09 457.22 372.24 482.61 372.24 483.16 367.38 462.77 367.38"/>
    </g>
  </g>
</svg>