<?xml version="1.0" encoding="UTF-8"?>
<svg id="Layer_1" data-name="Layer 1" xmlns="http://www.w3.org/2000/svg" viewBox="0 0 566.93 566.93">
  <defs>
    <style>
      .cls-1 {
        fill: #033431;
      }

      .cls-2 {
        fill: #00ca74;
      }
    </style>
  </defs>
  <g>
    <polygon class="cls-1" points="29.08 283.01 29.08 299.34 55.21 299.34 55.21 365.35 72.78 365.35 72.78 299.34 96.89 299.34 98.58 283.01 29.08 283.01"/>
    <path class="cls-1" d="M123.58,283.01l-25.12,82.34h18.14l5.41-18.59h32.89l5.52,18.59h17.8l-25.23-82.34h-29.4ZM126.28,332l10.36-34.13h3.83l10.25,34.13h-24.44Z"/>
    <polygon class="cls-1" points="210.76 318.04 189.7 283.01 171.22 283.01 201.97 333.69 201.97 365.35 219.43 365.35 219.43 333.69 250.18 283.01 231.6 283.01 210.76 318.04"/>
    <polygon class="cls-1" points="309.65 322.09 281.72 283.01 263.7 283.01 263.7 365.35 280.25 365.35 280.25 309.93 305.48 345.75 312.81 345.75 337.92 310.27 337.92 365.35 354.48 365.35 354.48 283.01 337.81 283.01 309.65 322.09"/>
    <path class="cls-1" d="M396.27,283.01l-25.12,82.34h18.14l5.41-18.59h32.89l5.52,18.59h17.8l-25.23-82.34h-29.4ZM398.97,332l10.36-34.13h3.83l10.25,34.13h-24.44Z"/>
    <path class="cls-1" d="M505.41,313.98c-5.75-1.13-20.39-2.93-20.39-9.01,0-7.32,10.7-8.45,17.23-8.45,8.22,0,17.35,4.62,19.26,12.84l16.22-9.57c-3.6-13.63-19.37-18.92-36.5-18.92-13.74,0-34.13,4.96-34.13,23.65,0,10.47,5.52,17.01,14.08,20.39,7.43,2.93,12.84,4.06,18.59,4.96,4.62.68,20.16,2.03,20.16,8.79,0,8.34-9.8,11.71-21.63,11.71-8.22,0-17.57-4.96-20.5-13.63l-15.99,9.12c3.38,10.93,15.99,20.5,38.52,20.5,15.43,0,37.51-7.32,37.51-27.03s-17.01-22.3-32.44-25.34Z"/>
  </g>
  <g>
    <path class="cls-2" d="M73.28,228.35h-7.07v11.95c-2.5,1-5.38,1.56-8.7,1.56-9.51,0-18.77-7.19-18.77-18.46,0-9.07,3.88-16.39,14.08-16.39,8.32,0,11.01,4.13,13.07,11.07l7.7-2.44c-3.07-10.82-9.89-15.08-19.52-15.08-14.64,0-22.52,8.01-22.52,23.08s11.07,24.4,25.02,24.4c9.07,0,12.82-.63,19.21-6.26v-1.63l-2.5-1.19v-10.63Z"/>
    <path class="cls-2" d="M125.26,215.02c0-9.38-8.13-13.2-18.21-13.2h-21.52v45.61h6.94v-19.27h9.57c6.51,6.57,10.07,12.51,12.7,19.27h8.76c-4.19-8.01-7.19-13.76-14.26-20.21,8.88-.88,16.02-3.13,16.02-12.2ZM105.81,222.28h-13.33v-14.58h13.95c8.26,0,12.51,1.63,12.51,7.32,0,6.94-6.82,7.26-13.14,7.26Z"/>
    <path class="cls-2" d="M145.9,201.82l-13.89,45.61h7.13l3.25-11.07h22.21l3.25,11.07h6.95l-13.95-45.61h-14.95ZM143.96,230.97l7.13-23.71h4.88l7.07,23.71h-19.08Z"/>
    <polygon class="cls-2" points="217.03 235.73 189.44 201.82 184.06 201.82 184.06 247.43 190.88 247.43 190.88 213.83 218.91 247.43 223.85 247.43 223.85 201.82 217.03 201.82 217.03 235.73"/>
    <path class="cls-2" d="M251.44,201.82h-14.58v45.61h18.21c12.32,0,22.71-6.19,22.71-20.14,0-16.27-10.45-25.46-26.34-25.46ZM254.19,241.61h-10.32v-33.85h6.44c10.57,0,20.46,6.19,20.46,18.52,0,11.26-6.94,15.33-16.58,15.33Z"/>
    <path class="cls-2" d="M330.63,201.82h-15.7v45.61h6.95v-16.39h13.07c8.88,0,18.39-3.88,18.39-14.51,0-12.01-10.13-14.7-22.71-14.7ZM332.57,225.28h-10.7v-17.58h12.32c8.26,0,12.45,3.13,12.45,8.82,0,7.51-8.38,8.76-14.08,8.76Z"/>
    <path class="cls-2" d="M368.85,201.82l-13.89,45.61h7.13l3.25-11.07h22.21l3.25,11.07h6.95l-13.95-45.61h-14.95ZM366.91,230.97l7.13-23.71h4.88l7.07,23.71h-19.08Z"/>
    <path class="cls-2" d="M421.59,201.82h-14.58v45.61h18.21c12.32,0,22.71-6.19,22.71-20.14,0-16.27-10.45-25.46-26.34-25.46ZM424.34,241.61h-10.32v-33.85h6.44c10.57,0,20.46,6.19,20.46,18.52,0,11.26-6.94,15.33-16.58,15.33Z"/>
    <polygon class="cls-2" points="465.5 224.66 485.02 224.66 485.65 218.78 465.5 218.78 465.5 208.14 491.34 208.14 492.03 201.82 458.49 201.82 458.49 247.43 491.71 247.43 492.4 241.3 465.5 241.3 465.5 224.66"/>
    <polygon class="cls-2" points="509.67 241.3 509.67 201.82 502.66 201.82 502.66 247.43 534.69 247.43 535.38 241.3 509.67 241.3"/>
  </g>
</svg>