<?xml version="1.0" encoding="UTF-8"?>
<svg id="Layer_1" data-name="Layer 1" xmlns="http://www.w3.org/2000/svg" viewBox="0 0 566.93 566.93">
  <defs>
    <style>
      .cls-1 {
        fill: #033431;
      }

      .cls-2 {
        fill: #fff;
      }
    </style>
  </defs>
  <g>
    <path class="cls-1" d="M60.95,226.94c11.46-.92,25.4-1.56,41.89-1.56,15.32,0,28.24.56,38.94,1.38,1.35.1,1.99-1.65.87-2.42-11.67-8.14-25.86-12.91-41.16-12.91s-29.71,4.85-41.43,13.1c-1.11.78-.47,2.53.88,2.42Z"/>
    <path class="cls-1" d="M35.28,296c-1.13.02-2.23.14-3.3.33-.74.14-1.22.85-1.07,1.59,2.57,12.61,8.43,24.01,16.64,33.29.51.57,1.37.61,1.93.09,4.2-3.88,6.78-9.5,6.55-15.71-.4-11.04-9.71-19.81-20.75-19.6Z"/>
    <path class="cls-1" d="M65.24,269.4H31.93c-.64,0-1.2.46-1.31,1.09-.59,3.21-.96,6.5-1.1,9.84-.03.82.69,1.47,1.5,1.36,1.4-.19,2.83-.29,4.27-.31,18.55-.2,34.18,14.28,35.3,32.8.63,10.4-3.32,19.91-10.01,26.69-.58.59-.5,1.55.18,2.02,3.53,2.43,7.29,4.55,11.24,6.32.09-.07.18-.14.26-.2,5.91-4.57,8.91-10.87,8.91-18.7v-38.46c0-9.12-1.23-15.13-3.75-18.39-1.46-1.89-4.17-4.06-12.19-4.06Z"/>
    <path class="cls-1" d="M113,264.51c5.06-6.54,12.83-9.72,23.75-9.72h28.78c.98,0,1.63-1.01,1.21-1.9-1.44-3.06-3.08-6.01-4.92-8.82-.21-.32-.55-.53-.93-.59h0c-11.27-1.59-30.49-3.49-58.05-3.49s-47.67,1.92-59.58,3.52c-.44.06-.87.12-1.3.18-.38.05-.73.27-.94.59-1.78,2.74-3.38,5.61-4.78,8.6-.42.89.24,1.9,1.21,1.9h27.78c10.92,0,18.69,3.18,23.75,9.72,4.64,6,6.81,14.68,6.81,27.34v38.46c0,8.41-2.31,15.92-6.77,22.18-.57.8-.11,1.93.87,2.09,3.78.61,7.65.93,11.6.93,3.62,0,7.18-.27,10.66-.78,1-.15,1.48-1.29.89-2.11-4.51-6.29-6.85-13.85-6.85-22.31v-38.46c0-12.65,2.16-21.34,6.81-27.34Z"/>
    <path class="cls-1" d="M171.43,296.71c-1.91-.52-3.94-.77-6.04-.71-10.62.34-19.28,8.96-19.66,19.58-.24,6.71,2.78,12.75,7.61,16.63.39.31.95.27,1.29-.1,8.67-9.46,14.85-21.24,17.49-34.31.1-.49-.2-.97-.68-1.1Z"/>
    <path class="cls-1" d="M172.37,270.51c-.12-.64-.67-1.11-1.32-1.11h-34.31c-8.03,0-10.74,2.17-12.2,4.05-2.52,3.26-3.75,9.27-3.75,18.39v38.46c0,7.84,3,14.13,8.91,18.7.21.16.43.33.64.48,3.89-1.7,7.6-3.74,11.09-6.08.7-.47.81-1.47.2-2.06-6.69-6.53-10.77-15.71-10.54-25.82.43-19.09,16.33-34.4,35.42-34.15,1.84.02,3.64.19,5.4.49.83.14,1.58-.53,1.55-1.37-.14-3.4-.51-6.73-1.1-9.99Z"/>
  </g>
  <g>
    <g>
      <polygon class="cls-2" points="200.86 276.53 200.86 287.33 218.15 287.33 218.15 331 229.77 331 229.77 287.33 245.72 287.33 246.84 276.53 200.86 276.53"/>
      <path class="cls-2" d="M263.37,276.53l-16.62,54.47h12l3.58-12.29h21.76l3.65,12.29h11.77l-16.69-54.47h-19.45ZM265.16,308.94l6.86-22.58h2.53l6.78,22.58h-16.17Z"/>
      <polygon class="cls-2" points="321.04 299.7 307.11 276.53 294.89 276.53 315.23 310.06 315.23 331 326.78 331 326.78 310.06 347.12 276.53 334.83 276.53 321.04 299.7"/>
      <polygon class="cls-2" points="386.46 302.39 367.98 276.53 356.06 276.53 356.06 331 367.01 331 367.01 294.34 383.7 318.03 388.55 318.03 405.16 294.56 405.16 331 416.12 331 416.12 276.53 405.09 276.53 386.46 302.39"/>
      <path class="cls-2" d="M443.76,276.53l-16.62,54.47h12l3.58-12.29h21.76l3.65,12.29h11.77l-16.69-54.47h-19.45ZM445.54,308.94l6.85-22.58h2.53l6.78,22.58h-16.17Z"/>
      <path class="cls-2" d="M515.95,297.02c-3.8-.75-13.49-1.94-13.49-5.96,0-4.84,7.08-5.59,11.4-5.59,5.44,0,11.47,3.05,12.74,8.49l10.73-6.33c-2.38-9.02-12.82-12.52-24.14-12.52-9.09,0-22.58,3.28-22.58,15.65,0,6.93,3.65,11.25,9.31,13.49,4.92,1.94,8.49,2.68,12.29,3.28,3.05.45,13.34,1.34,13.34,5.81,0,5.51-6.48,7.75-14.31,7.75-5.44,0-11.62-3.28-13.56-9.02l-10.58,6.04c2.24,7.23,10.58,13.56,25.48,13.56,10.21,0,24.81-4.84,24.81-17.88s-11.25-14.75-21.46-16.76Z"/>
    </g>
    <g>
      <path class="cls-1" d="M230.1,240.37h-4.68v7.9c-1.66.66-3.56,1.03-5.75,1.03-6.29,0-12.41-4.76-12.41-12.21,0-6,2.57-10.84,9.31-10.84,5.5,0,7.28,2.73,8.65,7.33l5.09-1.61c-2.03-7.16-6.54-9.97-12.91-9.97-9.68,0-14.9,5.3-14.9,15.27s7.33,16.14,16.55,16.14c6,0,8.48-.41,12.71-4.14v-1.08l-1.66-.79v-7.03Z"/>
      <path class="cls-1" d="M264.49,231.56c0-6.21-5.38-8.73-12.04-8.73h-14.24v30.17h4.59v-12.75h6.33c4.3,4.35,6.66,8.28,8.4,12.75h5.79c-2.77-5.3-4.76-9.1-9.44-13.37,5.88-.58,10.59-2.07,10.59-8.07ZM251.62,236.36h-8.82v-9.64h9.23c5.46,0,8.28,1.08,8.28,4.84,0,4.59-4.51,4.8-8.69,4.8Z"/>
      <path class="cls-1" d="M278.14,222.83l-9.19,30.17h4.72l2.15-7.32h14.69l2.15,7.32h4.59l-9.23-30.17h-9.89ZM276.86,242.11l4.72-15.68h3.23l4.68,15.68h-12.62Z"/>
      <polygon class="cls-1" points="325.19 245.26 306.94 222.83 303.38 222.83 303.38 252.99 307.89 252.99 307.89 230.77 326.43 252.99 329.7 252.99 329.7 222.83 325.19 222.83 325.19 245.26"/>
      <path class="cls-1" d="M347.95,222.83h-9.64v30.17h12.04c8.15,0,15.02-4.1,15.02-13.33,0-10.76-6.91-16.84-17.42-16.84ZM349.77,249.15h-6.83v-22.39h4.26c6.99,0,13.53,4.1,13.53,12.25,0,7.45-4.59,10.14-10.97,10.14Z"/>
      <path class="cls-1" d="M400.34,222.83h-10.39v30.17h4.59v-10.84h8.65c5.88,0,12.17-2.57,12.17-9.6,0-7.95-6.7-9.73-15.02-9.73ZM401.62,238.34h-7.08v-11.63h8.15c5.46,0,8.24,2.07,8.24,5.83,0,4.97-5.55,5.79-9.31,5.79Z"/>
      <path class="cls-1" d="M425.62,222.83l-9.19,30.17h4.72l2.15-7.32h14.69l2.15,7.32h4.59l-9.23-30.17h-9.89ZM424.34,242.11l4.72-15.68h3.23l4.68,15.68h-12.62Z"/>
      <path class="cls-1" d="M460.51,222.83h-9.64v30.17h12.04c8.15,0,15.02-4.1,15.02-13.33,0-10.76-6.91-16.84-17.42-16.84ZM462.33,249.15h-6.83v-22.39h4.26c6.99,0,13.53,4.1,13.53,12.25,0,7.45-4.59,10.14-10.97,10.14Z"/>
      <polygon class="cls-1" points="489.56 237.93 502.47 237.93 502.88 234.04 489.56 234.04 489.56 227.01 506.65 227.01 507.1 222.83 484.92 222.83 484.92 252.99 506.9 252.99 507.35 248.94 489.56 248.94 489.56 237.93"/>
      <polygon class="cls-1" points="518.77 248.94 518.77 222.83 514.14 222.83 514.14 252.99 535.32 252.99 535.78 248.94 518.77 248.94"/>
    </g>
  </g>
</svg>