<?xml version="1.0" encoding="UTF-8"?>
<svg id="Layer_1" data-name="Layer 1" xmlns="http://www.w3.org/2000/svg" viewBox="0 0 1417.32 1115.28">
  <defs>
    <style>
      .cls-1 {
        fill: #F5FFE6;
      }

      .cls-2 {
        fill: #00ca74;
      }
    </style>
  </defs>
  <g>
    <path class="cls-2" d="M870.87,60.03c6.01.68,8.94-7.17,3.92-10.54C828.19,18.24,772.05,0,711.66,0s-116.57,18.24-163.17,49.49c-5.02,3.37-2.09,11.22,3.92,10.54,42.87-4.87,95.76-8.36,159.25-8.36,63.46,0,116.35,3.48,159.21,8.36Z"/>
    <path class="cls-2" d="M421.72,328.92c6.52,50.18,25.91,96.35,54.73,135.1,2.2,2.95,6.62,3.08,9.03.31,13.12-15.08,21.07-34.76,21.07-56.22,0-44.79-34.55-81.68-78.5-85.7-3.69-.34-6.81,2.84-6.34,6.51Z"/>
    <path class="cls-2" d="M558.8,234.26h-129.17c-2.79,0-5.21,1.98-5.71,4.73-1.06,5.85-1.95,11.77-2.65,17.74-.4,3.36,2.24,6.26,5.62,6.41,77.25,3.55,138.98,67.2,138.98,144.97,0,38.5-15.14,73.55-39.83,99.58-2.34,2.47-2.23,6.4.4,8.55,17.84,14.58,37.43,27.06,58.41,37.1,2.05.98,4.54.69,6.27-.79,21.18-18.08,32.38-42.42,32.38-72.24v-155.39c0-84.36-25.61-90.67-64.7-90.67Z"/>
    <path class="cls-2" d="M865.82,175.19h105.1c4.21,0,7.08-4.38,5.28-8.19-4.96-10.49-10.54-20.62-16.67-30.38-.82-1.31-2.1-2.23-3.6-2.58-42.63-9.9-122.75-23.34-244.27-23.34s-201.61,13.4-244.31,23.33c-1.5.35-2.78,1.27-3.6,2.58-6.13,9.76-11.7,19.89-16.67,30.38-1.8,3.81,1.06,8.19,5.28,8.19h106.44c109.92,0,124,80.04,124,149.74v155.39c0,33.37-9.05,63.22-26.49,88.25-2.43,3.49-.4,8.26,3.79,9,16.74,2.97,33.96,4.53,51.56,4.53s35.62-1.63,52.72-4.74c4.17-.76,6.19-5.51,3.78-8.99-17.34-24.99-26.34-54.81-26.34-88.05v-155.39c0-69.7,14.09-149.74,124-149.74Z"/>
    <path class="cls-2" d="M917.53,408.12c0,21.2,7.76,40.66,20.58,55.68,2.4,2.81,6.86,2.69,9.07-.28,28.63-38.63,47.88-84.6,54.37-134.53.48-3.69-2.68-6.88-6.38-6.5-43.54,4.4-77.63,41.15-77.63,85.63Z"/>
    <path class="cls-2" d="M1002.02,256.77c-.71-5.99-1.6-11.91-2.66-17.78-.5-2.75-2.92-4.73-5.71-4.73h-127.83c-39.09,0-64.7,6.3-64.7,90.67v155.39c0,29.6,11.03,53.81,31.92,71.84,1.74,1.5,4.26,1.8,6.32.79,20.82-10.1,40.25-22.57,57.96-37.08,2.62-2.15,2.74-6.07.41-8.54-24.48-25.99-39.5-60.91-39.5-99.22,0-77.51,61.31-140.99,138.21-144.94,3.37-.17,5.98-3.06,5.59-6.41Z"/>
  </g>
  <g>
    <path class="cls-1" d="M0,873.85h196.89l-4.79,46.27h-68.29v186.99h-49.78v-186.99H0v-46.27Z"/>
    <path class="cls-1" d="M351.63,1054.46h-93.18l-15.32,52.65h-51.38l71.16-233.26h83.29l71.48,233.26h-50.42l-15.64-52.65ZM270.58,1012.66h69.25l-29.04-96.69h-10.85l-29.36,96.69Z"/>
    <path class="cls-1" d="M505.1,973.09l59.03-99.24h52.65l-87.11,143.59v89.67h-49.46v-89.67l-87.11-143.59h52.33l59.67,99.24Z"/>
    <path class="cls-1" d="M780.46,984.58l79.77-110.73h47.23v233.26h-46.91v-156.04l-71.16,100.52h-20.74l-71.48-101.47v157h-46.91v-233.26h51.06l79.14,110.73Z"/>
    <path class="cls-1" d="M1109.74,1054.46h-93.18l-15.32,52.65h-51.38l71.16-233.26h83.29l71.48,233.26h-50.42l-15.63-52.65ZM1028.69,1012.66h69.25l-29.04-96.69h-10.85l-29.36,96.69Z"/>
    <path class="cls-1" d="M1247.24,1026.06c8.3,24.57,34.78,38.61,58.08,38.61,33.51,0,61.27-9.57,61.27-33.19,0-19.15-44.04-22.98-57.12-24.89-16.27-2.55-31.59-5.74-52.65-14.04-24.25-9.57-39.89-28.08-39.89-57.76,0-52.97,57.76-67.01,96.69-67.01,48.5,0,93.18,15,103.39,53.61l-45.95,27.12c-5.43-23.29-31.27-36.38-54.57-36.38-18.51,0-48.82,3.19-48.82,23.93,0,17.23,41.48,22.34,57.76,25.53,43.72,8.62,91.9,17.55,91.9,71.8s-62.54,76.58-106.26,76.58c-63.82,0-99.56-27.12-109.13-58.08l45.31-25.85Z"/>
  </g>
  <g>
    <path class="cls-1" d="M15.08,754.35c0-38.65,20.21-59.17,57.73-59.17,24.69,0,42.17,10.9,50.03,38.65l-19.72,6.25c-5.29-17.8-12.19-28.38-33.51-28.38-26.14,0-36.08,18.76-36.08,42.01,0,28.86,23.73,47.3,48.1,47.3,8.5,0,15.88-1.44,22.29-4.01v-30.63h18.12v27.26l6.41,3.05v4.17c-16.36,14.43-25.98,16.03-49.23,16.03-35.76,0-64.14-24.85-64.14-62.54Z"/>
    <path class="cls-1" d="M163.9,698.39h55.16c25.82,0,46.66,9.78,46.66,33.83s-18.28,29.02-41.05,31.27c18.12,16.52,25.82,31.27,36.56,51.79h-22.45c-6.74-17.32-15.88-32.55-32.55-49.39h-24.53v49.39h-17.8v-116.9ZM181.7,713.46v37.36h34.16c16.2,0,33.67-.8,33.67-18.6,0-14.59-10.9-18.76-32.07-18.76h-35.76Z"/>
    <path class="cls-1" d="M377.02,786.9h-56.93l-8.34,28.38h-18.28l35.6-116.9h38.32l35.76,116.9h-17.8l-8.34-28.38ZM324.1,773.11h48.91l-18.12-60.77h-12.51l-18.28,60.77Z"/>
    <path class="cls-1" d="M539.3,698.39v116.9h-12.67l-71.84-86.11v86.11h-17.48v-116.9h13.79l70.71,86.91v-86.91h17.48Z"/>
    <path class="cls-1" d="M583.09,815.28v-116.9h37.36c40.73,0,67.51,23.57,67.51,65.26,0,35.76-26.62,51.63-58.21,51.63h-46.66ZM601.05,800.37h26.46c24.69,0,42.49-10.42,42.49-39.29,0-31.59-25.34-47.46-52.43-47.46h-16.52v86.75Z"/>
    <path class="cls-1" d="M821.87,773.27v42.01h-17.8v-116.9h40.25c32.23,0,58.21,6.89,58.21,37.68,0,27.26-24.37,37.2-47.14,37.2h-33.51ZM821.87,713.46v45.06h27.42c14.59,0,36.08-3.21,36.08-22.45,0-14.59-10.74-22.61-31.91-22.61h-31.59Z"/>
    <path class="cls-1" d="M1000.68,786.9h-56.93l-8.34,28.38h-18.28l35.6-116.9h38.32l35.76,116.9h-17.8l-8.34-28.38ZM947.76,773.11h48.91l-18.12-60.77h-12.51l-18.28,60.77Z"/>
    <path class="cls-1" d="M1060.98,815.28v-116.9h37.36c40.73,0,67.51,23.57,67.51,65.26,0,35.76-26.62,51.63-58.21,51.63h-46.66ZM1078.94,800.37h26.46c24.69,0,42.49-10.42,42.49-39.29,0-31.59-25.34-47.46-52.43-47.46h-16.52v86.75Z"/>
    <path class="cls-1" d="M1288.53,815.28h-85.15v-116.9h85.95l-1.76,16.2h-66.22v27.26h51.63l-1.6,15.07h-50.03v42.65h68.95l-1.76,15.71Z"/>
    <path class="cls-1" d="M1409.12,815.28h-82.1v-116.9h17.96v101.18h65.9l-1.76,15.71Z"/>
  </g>
</svg>