<?xml version="1.0" encoding="UTF-8"?>
<svg id="Layer_1" data-name="Layer 1" xmlns="http://www.w3.org/2000/svg" viewBox="0 0 566.93 566.93">
  <defs>
    <style>
      .cls-1 {
        fill: #231f20;
      }
    </style>
  </defs>
  <path class="cls-1" d="M177.09,135.19c30.07-2.4,66.63-4.1,109.9-4.1,40.19,0,74.08,1.47,102.15,3.62,3.55.27,5.21-4.32,2.29-6.36-30.61-21.35-67.83-33.87-107.98-33.87s-77.94,12.71-108.69,34.36c-2.91,2.05-1.23,6.63,2.32,6.35Z"/>
  <path class="cls-1" d="M109.75,316.35c-2.95.06-5.84.36-8.66.88-1.94.36-3.2,2.24-2.81,4.18,6.73,33.07,22.11,62.99,43.66,87.32,1.33,1.5,3.58,1.6,5.06.24,11.03-10.18,17.77-24.93,17.19-41.21-1.05-28.96-25.46-51.98-54.43-51.4Z"/>
  <path class="cls-1" d="M188.35,246.57h-87.37c-1.69,0-3.15,1.2-3.45,2.85-1.54,8.43-2.51,17.05-2.88,25.82-.09,2.16,1.8,3.84,3.94,3.56,3.67-.49,7.42-.77,11.21-.81,48.67-.54,89.65,37.46,92.59,86.05,1.65,27.28-8.7,52.22-26.26,70.02-1.52,1.54-1.3,4.07.48,5.29,9.27,6.37,19.12,11.92,29.49,16.58.23-.18.46-.36.69-.53,15.51-12,23.38-28.51,23.38-49.07v-100.89c0-23.92-3.22-39.7-9.84-48.24-3.83-4.95-10.93-10.64-31.99-10.64Z"/>
  <path class="cls-1" d="M313.63,233.74c13.28-17.16,33.66-25.5,62.31-25.5h75.5c2.56,0,4.27-2.66,3.19-4.98-3.77-8.03-8.09-15.76-12.91-23.13-.55-.84-1.44-1.4-2.44-1.54h-.02c-29.57-4.18-79.99-9.16-152.27-9.16s-125.06,5.03-156.28,9.24c-1.15.15-2.29.31-3.4.47-1.01.14-1.91.71-2.47,1.56-4.67,7.19-8.86,14.73-12.54,22.55-1.09,2.32.62,4.99,3.19,4.99h72.87c28.64,0,49.02,8.35,62.31,25.51,12.18,15.73,17.86,38.52,17.86,71.71v100.89c0,22.05-6.06,41.76-17.75,58.19-1.5,2.1-.28,5.07,2.27,5.48,9.9,1.6,20.06,2.44,30.42,2.44,9.5,0,18.84-.7,27.96-2.06,2.61-.39,3.88-3.39,2.34-5.53-11.83-16.5-17.98-36.32-17.98-58.52v-100.9c0-33.19,5.67-55.97,17.86-71.71Z"/>
  <path class="cls-1" d="M466.91,318.22c-5.02-1.38-10.34-2.03-15.83-1.85-27.86.9-50.57,23.51-51.58,51.37-.64,17.61,7.29,33.44,19.95,43.61,1.01.82,2.5.71,3.38-.25,22.75-24.81,38.95-55.72,45.87-89.99.26-1.28-.53-2.53-1.78-2.88Z"/>
  <path class="cls-1" d="M469.39,249.48c-.3-1.68-1.75-2.9-3.46-2.9h-90c-21.06,0-28.17,5.68-31.99,10.63-6.62,8.55-9.83,24.33-9.83,48.24v100.9c0,20.56,7.86,37.07,23.37,49.06.56.43,1.12.85,1.69,1.27,10.2-4.47,19.93-9.81,29.1-15.94,1.84-1.23,2.12-3.87.53-5.42-17.54-17.12-28.26-41.2-27.66-67.73,1.14-50.07,42.83-90.24,92.91-89.59,4.82.06,9.55.5,14.16,1.28,2.19.37,4.16-1.39,4.07-3.6-.36-8.91-1.34-17.66-2.89-26.21Z"/>
</svg>