<?xml version="1.0" encoding="UTF-8"?>
<svg id="Layer_1" data-name="Layer 1" xmlns="http://www.w3.org/2000/svg" viewBox="0 0 582.37 582.09">
  <defs>
    <style>
      .cls-1 {
        fill: #231f20;
      }
    </style>
  </defs>
  <path class="cls-1" d="M450.83,58.66c6.02.68,8.96-7.19,3.93-10.57C408.04,16.76,351.76-1.53,291.2-1.53s-116.87,18.29-163.6,49.62c-5.03,3.38-2.09,11.25,3.93,10.57,42.98-4.89,96.01-8.38,159.67-8.38,63.63,0,116.65,3.49,159.63,8.38Z"/>
  <path class="cls-1" d="M.51,328.26c6.54,50.31,25.98,96.6,54.88,135.46,2.2,2.96,6.64,3.09,9.06.31,13.15-15.12,21.12-34.85,21.12-56.37,0-44.91-34.64-81.9-78.7-85.93-3.69-.34-6.83,2.85-6.35,6.53Z"/>
  <path class="cls-1" d="M137.94,233.35H8.43c-2.8,0-5.23,1.99-5.73,4.74-1.06,5.87-1.95,11.8-2.66,17.79-.4,3.37,2.24,6.27,5.63,6.43,77.46,3.56,139.35,67.37,139.35,145.36,0,38.6-15.18,73.74-39.94,99.85-2.35,2.47-2.24,6.42.4,8.58,17.88,14.62,37.53,27.13,58.56,37.19,2.06.98,4.56.69,6.29-.79,21.24-18.13,32.47-42.53,32.47-72.43v-155.8c0-84.59-25.68-90.9-64.87-90.9Z"/>
  <path class="cls-1" d="M445.77,174.12h105.38c4.22,0,7.1-4.39,5.29-8.21-4.98-10.52-10.57-20.67-16.71-30.46-.82-1.31-2.1-2.24-3.61-2.59-42.74-9.92-123.07-23.4-244.91-23.4s-202.14,13.44-244.95,23.4c-1.51.35-2.79,1.28-3.61,2.59-6.15,9.79-11.73,19.94-16.71,30.46-1.81,3.82,1.07,8.21,5.29,8.21h106.72c110.21,0,124.33,80.25,124.33,150.13v155.8c0,33.46-9.08,63.39-26.56,88.48-2.44,3.5-.4,8.28,3.8,9.03,16.79,2.98,34.05,4.54,51.69,4.54s35.72-1.63,52.86-4.75c4.18-.76,6.21-5.52,3.79-9.01-17.39-25.06-26.41-54.95-26.41-88.28v-155.8c0-69.88,14.12-150.13,124.33-150.13Z"/>
  <path class="cls-1" d="M497.61,407.66c0,21.25,7.78,40.76,20.64,55.83,2.41,2.82,6.88,2.7,9.09-.28,28.71-38.74,48.01-84.82,54.51-134.89.48-3.7-2.69-6.89-6.4-6.52-43.65,4.42-77.84,41.26-77.84,85.86Z"/>
  <path class="cls-1" d="M582.33,255.91c-.71-6-1.6-11.94-2.67-17.82-.5-2.75-2.93-4.74-5.73-4.74h-128.17c-39.19,0-64.87,6.32-64.87,90.9v155.8c0,29.68,11.06,53.95,32,72.03,1.74,1.5,4.27,1.8,6.34.8,20.87-10.12,40.36-22.63,58.11-37.17,2.63-2.15,2.74-6.08.41-8.56-24.54-26.06-39.61-61.07-39.61-99.48,0-77.71,61.47-141.36,138.57-145.32,3.38-.17,6-3.07,5.6-6.43Z"/>
</svg>