<?xml version="1.0" encoding="UTF-8"?>
<svg id="Layer_1" data-name="Layer 1" xmlns="http://www.w3.org/2000/svg" viewBox="0 0 2141.47 582.09">
  <defs>
    <style>
      .cls-1 {
        fill: #f5ffe6;
      }

      .cls-2 {
        fill: #00ca74;
      }
    </style>
  </defs>
  <g>
    <path class="cls-2" d="M449.65,60.03c6.01.68,8.94-7.17,3.92-10.54C406.97,18.24,350.83,0,290.44,0s-116.57,18.24-163.17,49.49c-5.02,3.37-2.09,11.22,3.92,10.54,42.87-4.87,95.76-8.36,159.25-8.36,63.46,0,116.35,3.48,159.21,8.36Z"/>
    <path class="cls-2" d="M.51,328.92c6.52,50.18,25.91,96.35,54.73,135.1,2.2,2.95,6.62,3.08,9.03.31,13.12-15.08,21.07-34.76,21.07-56.22,0-44.79-34.55-81.68-78.5-85.7-3.69-.34-6.81,2.84-6.34,6.51Z"/>
    <path class="cls-2" d="M137.58,234.26H8.41c-2.79,0-5.21,1.98-5.71,4.73-1.06,5.85-1.95,11.77-2.65,17.74-.4,3.36,2.24,6.26,5.62,6.41,77.25,3.55,138.98,67.2,138.98,144.97,0,38.5-15.14,73.55-39.83,99.58-2.34,2.47-2.23,6.4.4,8.55,17.84,14.58,37.43,27.06,58.41,37.1,2.05.98,4.54.69,6.27-.79,21.18-18.08,32.38-42.42,32.38-72.24v-155.39c0-84.36-25.61-90.67-64.7-90.67Z"/>
    <path class="cls-2" d="M444.6,175.19h105.1c4.21,0,7.08-4.38,5.28-8.19-4.96-10.49-10.54-20.62-16.67-30.38-.82-1.31-2.1-2.23-3.6-2.58-42.63-9.9-122.75-23.34-244.27-23.34s-201.61,13.4-244.31,23.33c-1.5.35-2.78,1.27-3.6,2.58-6.13,9.76-11.7,19.89-16.67,30.38-1.8,3.81,1.06,8.19,5.28,8.19h106.44c109.92,0,124,80.04,124,149.74v155.39c0,33.37-9.05,63.22-26.49,88.25-2.43,3.49-.4,8.26,3.79,9,16.74,2.97,33.96,4.53,51.56,4.53s35.62-1.63,52.72-4.74c4.17-.76,6.19-5.51,3.78-8.99-17.34-24.99-26.34-54.81-26.34-88.05v-155.39c0-69.7,14.09-149.74,124-149.74Z"/>
    <path class="cls-2" d="M496.31,408.12c0,21.2,7.76,40.66,20.58,55.68,2.4,2.81,6.86,2.69,9.07-.28,28.63-38.63,47.88-84.6,54.37-134.53.48-3.69-2.68-6.88-6.38-6.5-43.54,4.4-77.63,41.15-77.63,85.63Z"/>
    <path class="cls-2" d="M580.8,256.77c-.71-5.99-1.6-11.91-2.66-17.78-.5-2.75-2.92-4.73-5.71-4.73h-127.83c-39.09,0-64.7,6.3-64.7,90.67v155.39c0,29.6,11.03,53.81,31.92,71.84,1.74,1.5,4.26,1.8,6.32.79,20.82-10.1,40.25-22.57,57.96-37.08,2.62-2.15,2.74-6.07.41-8.54-24.48-25.99-39.5-60.91-39.5-99.22,0-77.51,61.31-140.99,138.21-144.94,3.37-.17,5.98-3.06,5.59-6.41Z"/>
  </g>
  <g>
    <path class="cls-1" d="M1520.54,132.28v42.35h-17.94V56.79h40.57c32.49,0,58.68,6.95,58.68,37.99,0,27.48-24.57,37.5-47.52,37.5h-33.78ZM1520.54,71.98v45.42h27.64c14.71,0,36.37-3.23,36.37-22.63,0-14.71-10.83-22.79-32.17-22.79h-31.84Z"/>
    <path class="cls-1" d="M1707.1,146.02h-57.38l-8.41,28.61h-18.43l35.89-117.84h38.63l36.05,117.84h-17.94l-8.41-28.61ZM1653.76,132.12h49.3l-18.27-61.26h-12.61l-18.43,61.26Z"/>
    <path class="cls-1" d="M1774.21,174.63V56.79h37.66c41.06,0,68.05,23.76,68.05,65.79,0,36.05-26.83,52.05-58.68,52.05h-47.04ZM1792.31,159.6h26.67c24.89,0,42.84-10.51,42.84-39.6,0-31.84-25.54-47.85-52.86-47.85h-16.65v87.45Z"/>
    <path class="cls-1" d="M2009.91,174.63h-85.83V56.79h86.64l-1.78,16.33h-66.76v27.48h52.05l-1.62,15.19h-50.43v43h69.51l-1.78,15.84Z"/>
    <path class="cls-1" d="M2137.79,174.63h-82.76V56.79h18.1v102h66.44l-1.78,15.84Z"/>
  </g>
  <g>
    <path class="cls-1" d="M698.76,113.2c0-38.96,20.37-59.65,58.19-59.65,24.89,0,42.51,10.99,50.43,38.96l-19.88,6.3c-5.33-17.94-12.28-28.61-33.78-28.61-26.35,0-36.37,18.91-36.37,42.35,0,29.1,23.92,47.69,48.49,47.69,8.57,0,16-1.45,22.47-4.04v-30.87h18.27v27.48l6.47,3.07v4.2c-16.49,14.55-26.19,16.17-49.63,16.17-36.05,0-64.66-25.06-64.66-63.04Z"/>
    <path class="cls-1" d="M851.21,56.79h55.61c26.03,0,47.04,9.86,47.04,34.11s-18.43,29.26-41.38,31.52c18.27,16.65,26.03,31.52,36.86,52.21h-22.63c-6.79-17.46-16-32.81-32.81-49.79h-24.73v49.79h-17.94V56.79ZM869.15,71.98v37.66h34.43c16.33,0,33.95-.81,33.95-18.75,0-14.71-10.99-18.91-32.33-18.91h-36.05Z"/>
    <path class="cls-1" d="M1068.48,146.02h-57.38l-8.41,28.61h-18.43l35.89-117.84h38.63l36.05,117.84h-17.94l-8.41-28.61ZM1015.14,132.12h49.3l-18.27-61.26h-12.61l-18.43,61.26Z"/>
    <path class="cls-1" d="M1234.51,56.79v117.84h-12.77l-72.42-86.8v86.8h-17.62V56.79h13.9l71.29,87.61V56.79h17.62Z"/>
    <path class="cls-1" d="M1281.09,174.63V56.79h37.66c41.06,0,68.05,23.76,68.05,65.79,0,36.05-26.83,52.05-58.68,52.05h-47.04ZM1299.19,159.6h26.67c24.89,0,42.84-10.51,42.84-39.6,0-31.84-25.54-47.85-52.86-47.85h-16.65v87.45Z"/>
  </g>
  <g>
    <path class="cls-1" d="M697.26,234.87h194.26l-4.72,45.65h-67.38v184.5h-49.12v-184.5h-73.04v-45.65Z"/>
    <path class="cls-1" d="M1053.35,413.08h-91.93l-15.11,51.95h-50.69l70.21-230.15h82.17l70.53,230.15h-49.75l-15.43-51.95ZM973.38,371.83h68.32l-28.65-95.4h-10.7l-28.97,95.4Z"/>
    <path class="cls-1" d="M1213.92,332.79l58.25-97.92h51.95l-85.95,141.68v88.47h-48.8v-88.47l-85.95-141.68h51.64l58.88,97.92Z"/>
    <path class="cls-1" d="M1494.77,344.13l78.71-109.25h46.6v230.15h-46.28v-153.96l-70.21,99.18h-20.47l-70.53-100.12v154.9h-46.28v-230.15h50.38l78.08,109.25Z"/>
    <path class="cls-1" d="M1828.82,413.08h-91.93l-15.11,51.95h-50.69l70.21-230.15h82.17l70.53,230.15h-49.75l-15.43-51.95ZM1748.85,371.83h68.32l-28.65-95.4h-10.7l-28.97,95.4Z"/>
    <path class="cls-1" d="M1973.65,385.06c8.19,24.24,34.32,38.1,57.3,38.1,33.06,0,60.45-9.45,60.45-32.74,0-18.89-43.45-22.67-56.36-24.56-16.06-2.52-31.17-5.67-51.95-13.85-23.93-9.45-39.36-27.71-39.36-56.99,0-52.26,56.99-66.12,95.4-66.12,47.86,0,91.94,14.8,102.01,52.89l-45.34,26.76c-5.35-22.98-30.86-35.89-53.84-35.89-18.26,0-48.17,3.15-48.17,23.61,0,17,40.93,22.04,56.99,25.19,43.13,8.5,90.68,17.32,90.68,70.84s-61.71,75.56-104.84,75.56c-62.97,0-98.23-26.76-107.68-57.3l44.71-25.5Z"/>
  </g>
</svg>